<?xml version="1.0" encoding="UTF-8"?>
<svg width="700pt" height="700pt" version="1.1" viewBox="0 0 700 700" xmlns="http://www.w3.org/2000/svg">
 <g fill-rule="evenodd">
  <path d="m700 398.46v78.508h-44.539c-10.586-77.781-162.7-77.781-173.28 0h-46.652c-11.348-83.426-173.18-69.949-173.18 0h-44.633c0-69.949-161.83-83.426-173.18 0h-44.539v-78.508z"/>
  <path d="m671.25 262.88h28.66l0.089844 131.18h-700l0.089844-131.18h28.66v4.875c187.27-34.012 276.09-89.242 306.93-112.72v-16.648h28.648v14.375c27.738 21.879 115.38 79.25 306.93 114.46zm-642.5 12.34v104.77h306.93v-215.84c-35.43 25.695-126.15 78.418-306.93 111.08zm335.58 104.77h306.93v-105.3c-184.04-33.66-273.91-88.055-306.93-112.71z"/>
 </g>
</svg>
